<svg width="315" height="343" viewBox="0 0 315 343" fill="none" xmlns="http://www.w3.org/2000/svg">
<path fill-rule="evenodd" clip-rule="evenodd" d="M313.479 64.12V185.885C313.479 191.066 313.155 196.248 312.832 201.429C312.184 206.61 311.536 211.792 310.565 216.649C309.593 221.507 308.298 226.688 306.678 231.546C305.059 236.404 303.44 241.262 301.497 246.119C299.554 250.977 297.287 255.511 295.02 260.044C292.43 264.578 289.839 269.112 286.924 273.322C284.01 277.532 281.095 281.742 277.856 285.628C274.619 289.514 271.056 293.4 267.494 296.962C263.932 300.524 260.045 304.087 256.159 307.325C252.273 310.563 248.064 313.478 243.853 316.393C239.643 319.308 235.11 321.898 230.575 324.165C226.042 326.432 221.508 328.699 216.651 330.642C211.793 332.585 206.935 334.204 202.078 335.824C197.22 337.443 192.038 338.738 187.181 339.709C182.323 340.681 177.142 341.328 171.96 341.976C166.778 342.624 161.597 342.624 156.739 342.624C151.558 342.624 146.377 342.301 141.196 341.976C136.013 341.653 131.157 340.681 125.974 339.709C120.793 338.738 115.935 337.443 111.078 335.824C106.22 334.204 101.363 332.585 96.5052 330.642C91.6475 328.699 87.1132 326.432 82.5798 324.165C78.046 321.898 73.5122 318.984 69.3022 316.393C65.0923 313.478 60.8823 310.563 56.9962 307.325C53.1101 304.087 49.2239 300.524 45.6617 296.962C42.0994 293.4 38.5372 289.514 35.2988 285.628C32.0604 281.742 28.8219 277.532 26.2312 273.322C23.6404 269.112 20.7259 264.578 18.4589 260.044C15.8682 255.511 13.9251 250.977 11.9821 246.119C10.0391 241.262 8.41983 236.404 6.80058 231.546C5.1814 226.688 3.88609 221.507 2.91456 216.649C1.94303 211.792 1.29531 206.61 0.647625 201.429C-5.88505e-05 196.248 0 191.066 0 185.885V64.12C0 63.4723 0.323783 63.1484 0.647625 62.8246C0.971466 62.5007 1.61915 62.1769 2.26684 62.1769H33.6796L25.9074 76.7498H14.5729V185.885C14.5729 190.419 14.8967 195.276 15.2205 199.81C15.5444 204.343 16.5159 209.201 17.4875 213.735C18.459 218.269 19.4306 222.803 21.0497 227.336C22.3451 231.87 23.9643 236.08 25.9074 240.614C27.8504 244.824 29.7934 249.034 32.0604 253.243C34.3273 257.453 36.5941 261.34 39.1848 265.226C41.7756 269.112 44.6902 272.674 47.6048 276.236C50.5193 279.799 53.7578 283.361 56.9962 286.599C60.2346 289.838 63.7969 293.076 67.3591 295.991C70.9214 298.905 74.8075 301.82 78.6936 304.411C82.5798 307.001 86.4662 309.269 90.6761 311.536C94.886 313.802 99.0959 315.746 103.306 317.365C107.516 319.308 112.049 320.602 116.26 321.898C120.47 323.194 125.327 324.489 129.861 325.137C134.394 325.785 138.928 326.756 143.462 327.079C147.996 327.404 152.854 327.727 157.387 327.727C161.921 327.727 166.778 327.404 171.313 327.079C175.846 326.756 180.38 325.785 185.238 325.137C189.771 324.165 194.306 323.194 198.839 321.898C203.373 320.602 207.583 318.984 211.793 317.365C216.003 315.746 220.213 313.478 224.423 311.536C228.633 309.269 232.519 307.001 236.404 304.411C240.291 301.82 244.177 299.23 247.739 295.991C251.301 292.753 254.864 289.838 258.103 286.599C261.34 283.361 264.579 279.799 267.494 276.236C270.408 272.674 273.323 268.788 275.913 265.226C278.504 261.663 280.771 257.453 283.038 253.243C285.305 249.034 287.248 244.824 289.191 240.614C291.134 236.404 292.43 231.87 294.049 227.336C295.345 222.803 296.639 218.269 297.611 213.735C298.582 209.201 299.23 204.668 299.878 199.81C300.201 195.276 300.526 190.419 300.526 185.885V76.7498H289.191L281.419 62.5007H312.832C313.479 62.5007 313.803 62.8246 314.451 63.1484C315.098 63.4723 313.479 63.7961 313.479 64.12Z" fill="#87806F"/>
<path fill-rule="evenodd" clip-rule="evenodd" d="M34.3269 96.5054L53.7575 81.9321L64.1205 112.049C64.1205 112.697 64.7682 113.345 65.4158 113.345C66.3873 113.668 67.035 113.345 67.6827 113.021L133.099 49.224L116.259 83.8749C116.259 84.1992 116.259 84.5227 116.259 85.1706C116.259 85.4941 116.583 85.8185 117.231 85.8185C118.202 86.142 119.174 86.142 119.821 85.4941L142.167 61.53L154.796 103.954C155.12 104.925 155.768 105.249 156.739 105.249C157.711 105.249 158.358 104.925 158.683 103.954L171.312 61.2062L193.657 85.1706C194.305 85.8185 195.277 86.142 196.248 85.4941C196.572 85.4941 196.896 85.1706 197.219 84.8462C197.219 84.5227 197.544 84.1992 197.219 83.5514L180.38 48.9001L245.796 112.697C246.443 113.345 247.091 113.345 248.062 113.021C248.71 112.697 249.358 112.374 249.358 111.726L259.721 81.6082L279.152 96.181C280.123 96.8289 280.771 96.8289 281.742 96.181C282.714 95.5331 282.714 94.5618 282.066 93.5904L265.226 63.4731C263.931 61.2061 261.988 60.8823 259.721 62.1777L231.871 79.6651L159.654 1.29538C158.683 0.32385 157.71 0 156.415 0C155.12 0 154.148 0.32385 153.177 1.29538L80.9603 79.6651L53.1098 62.1777C50.843 60.8823 48.8999 61.2061 47.6045 63.4731L30.7648 93.5904C30.1171 94.5618 30.4409 95.5331 31.0885 96.181C32.7078 97.1524 33.6793 97.1524 34.3269 96.5054ZM157.71 187.829C157.387 186.209 156.415 186.209 156.092 187.829C153.177 199.811 144.757 218.917 137.957 230.575C144.433 230.252 150.586 230.252 157.063 230.252C163.54 230.252 169.693 230.252 176.17 230.575C169.045 218.917 160.625 199.811 157.71 187.829ZM271.379 112.697C271.055 112.049 270.408 111.726 269.436 111.726C268.465 111.726 268.141 112.374 267.817 113.345L264.903 135.69L259.074 130.509C258.426 129.861 257.778 129.861 257.13 130.184C256.483 130.508 256.159 131.156 256.159 132.127L259.074 157.387L212.764 102.01C212.116 101.362 211.468 101.039 210.497 101.362C209.526 101.687 209.201 102.334 209.201 103.306L210.497 121.117L185.561 103.954C185.238 103.629 184.913 103.629 184.266 103.629C183.618 103.629 183.294 103.953 182.971 104.277L156.415 132.452L129.86 104.277C129.536 103.953 129.213 103.629 128.565 103.629C128.241 103.629 127.593 103.629 127.27 103.954L102.334 121.117L103.305 103.306C103.305 102.334 102.982 101.687 102.01 101.362C101.038 101.039 100.39 101.362 99.7434 102.01L53.7575 157.387L56.6722 132.127C56.6722 131.156 56.3482 130.508 55.7005 130.184C55.0528 129.861 54.0813 129.861 53.7575 130.509L47.9284 135.69L45.0138 113.345C45.0138 112.374 44.3661 112.049 43.3946 111.726C42.4231 111.401 41.7754 111.726 41.4515 112.697L27.8501 135.69V185.885C27.8501 204.992 31.7363 223.127 40.1561 240.291C61.2059 236.729 82.5795 234.137 104.277 232.195C104.925 225.071 103.629 216.65 101.038 212.765C100.715 212.44 100.715 212.117 100.715 211.792C100.715 211.469 101.038 211.145 101.363 210.821C116.906 201.43 145.081 175.523 153.825 160.301C154.148 159.654 154.796 159.007 155.768 159.007C156.739 159.007 157.387 159.33 157.71 160.301C166.454 175.523 194.629 201.43 210.173 210.821C210.497 211.145 210.82 211.145 210.82 211.792C210.82 212.44 210.821 212.44 210.497 212.765C207.906 216.327 206.611 224.746 207.258 232.195C228.956 233.814 250.33 236.729 271.379 240.291C279.475 223.127 283.685 204.992 283.685 185.885V135.69L271.379 112.697ZM66.0636 276.561C68.9781 279.476 72.2166 282.391 75.455 284.981C78.6934 287.572 81.9318 290.163 85.4937 292.43C89.0565 294.696 92.6185 296.963 96.1805 298.907C99.7434 300.849 103.629 302.792 107.515 304.411C111.402 306.031 115.287 307.326 119.174 308.621C123.06 309.917 127.27 310.888 131.48 311.536C135.69 312.184 139.576 312.831 143.786 313.479C147.996 314.127 152.206 314.127 156.415 314.127C160.625 314.127 164.835 313.803 169.045 313.479C173.255 313.156 177.465 312.508 181.351 311.536C185.561 310.565 189.448 309.593 193.657 308.621C197.543 307.326 201.754 306.031 205.316 304.411C208.878 302.792 213.088 300.849 216.65 298.907C220.212 296.963 223.774 294.696 227.336 292.43C230.899 290.163 234.138 287.572 237.375 284.981C240.614 282.391 243.852 279.476 246.767 276.561C256.159 267.169 263.607 256.807 269.761 245.149H42.7469C49.2237 257.13 56.9959 267.494 66.0636 276.561ZM144.109 273.646C144.109 273.323 144.433 273.323 144.757 273.323H153.825L156.739 264.903C156.739 264.579 157.063 264.579 157.063 264.579C157.063 264.579 157.387 264.579 157.387 264.903L160.302 273.323H169.369C169.693 273.323 169.693 273.323 170.017 273.646C170.017 273.97 170.017 273.97 169.693 274.294L162.568 279.476L165.483 287.895C165.483 288.22 165.483 288.22 165.16 288.543C164.835 288.867 164.835 288.543 164.512 288.543L157.387 283.362L150.263 288.543C149.938 288.867 149.938 288.867 149.615 288.543C149.291 288.22 149.291 288.22 149.291 287.895L152.206 279.476L145.081 274.294C144.109 274.294 144.109 273.97 144.109 273.646Z" fill="#4D4D4F"/>
</svg>
