<svg width="116" height="76" viewBox="0 0 116 76" fill="none" xmlns="http://www.w3.org/2000/svg">
<g clip-path="url(#clip0_1_2)">
<path fill-rule="evenodd" clip-rule="evenodd" d="M76.4987 7.90403V22.3947C76.4987 23.0113 76.4602 23.628 76.4217 24.2446C76.3446 24.8612 76.2675 25.4778 76.1519 26.0559C76.0363 26.634 75.8821 27.2506 75.6894 27.8287C75.4967 28.4068 75.304 28.9849 75.0728 29.563C74.8416 30.1411 74.5718 30.6806 74.302 31.2201C73.9937 31.7597 73.6854 32.2992 73.3385 32.8002C72.9917 33.3013 72.6448 33.8023 72.2594 34.2647C71.8741 34.7272 71.4501 35.1897 71.0262 35.6136C70.6023 36.0375 70.1398 36.4615 69.6773 36.8468C69.2149 37.2322 68.7139 37.5791 68.2128 37.9259C67.7118 38.2728 67.1723 38.5811 66.6327 38.8509C66.0932 39.1207 65.5536 39.3904 64.9756 39.6217C64.3975 39.8529 63.8194 40.0456 63.2413 40.2383C62.6632 40.431 62.0466 40.5851 61.4685 40.7007C60.8904 40.8164 60.2738 40.8934 59.6572 40.9705C59.0405 41.0476 58.4239 41.0476 57.8458 41.0476C57.2292 41.0476 56.6126 41.0091 55.996 40.9705C55.3793 40.932 54.8013 40.8164 54.1846 40.7007C53.568 40.5851 52.9899 40.431 52.4118 40.2383C51.8337 40.0456 51.2557 39.8529 50.6776 39.6217C50.0995 39.3904 49.5599 39.1207 49.0204 38.8509C48.4808 38.5811 47.9413 38.2343 47.4403 37.9259C46.9393 37.5791 46.4383 37.2322 45.9758 36.8468C45.5133 36.4615 45.0509 36.0375 44.6269 35.6136C44.203 35.1897 43.7791 34.7272 43.3937 34.2647C43.0083 33.8023 42.6229 33.3013 42.3146 32.8002C42.0063 32.2992 41.6594 31.7597 41.3897 31.2201C41.0813 30.6806 40.8501 30.1411 40.6189 29.563C40.3876 28.9849 40.1949 28.4068 40.0022 27.8287C39.8095 27.2506 39.6554 26.634 39.5398 26.0559C39.4242 25.4778 39.3471 24.8612 39.27 24.2446C39.1929 23.628 39.1929 23.0113 39.1929 22.3947V7.90403C39.1929 7.82695 39.2315 7.78841 39.27 7.74987C39.3085 7.71133 39.3856 7.67279 39.4627 7.67279H43.201L42.2761 9.40705H40.9272V22.3947C40.9272 22.9343 40.9657 23.5123 41.0043 24.0519C41.0428 24.5914 41.1584 25.1695 41.274 25.7091C41.3897 26.2486 41.5053 26.7882 41.698 27.3277C41.8521 27.8672 42.0448 28.3683 42.2761 28.9078C42.5073 29.4088 42.7385 29.9098 43.0083 30.4108C43.2781 30.9118 43.5478 31.3743 43.8561 31.8368C44.1645 32.2992 44.5113 32.7232 44.8582 33.1471C45.205 33.571 45.5904 33.995 45.9758 34.3803C46.3612 34.7657 46.7851 35.1511 47.2091 35.498C47.633 35.8448 48.0955 36.1917 48.5579 36.5C49.0204 36.8083 49.4829 37.0781 49.9839 37.3479C50.4849 37.6176 50.9859 37.8489 51.4869 38.0416C51.9879 38.2728 52.5274 38.4269 53.0285 38.5811C53.5295 38.7353 54.1075 38.8894 54.6471 38.9665C55.1866 39.0436 55.7262 39.1592 56.2657 39.1977C56.8053 39.2363 57.3834 39.2748 57.9229 39.2748C58.4625 39.2748 59.0405 39.2363 59.5801 39.1977C60.1196 39.1592 60.6592 39.0436 61.2373 38.9665C61.7768 38.8509 62.3164 38.7353 62.8559 38.5811C63.3955 38.4269 63.8965 38.2343 64.3975 38.0416C64.8985 37.8489 65.3995 37.5791 65.9005 37.3479C66.4015 37.0781 66.864 36.8083 67.3264 36.5C67.7889 36.1917 68.2514 35.8834 68.6753 35.498C69.0992 35.1126 69.5232 34.7657 69.9086 34.3803C70.2939 33.995 70.6793 33.571 71.0262 33.1471C71.373 32.7232 71.7199 32.2607 72.0282 31.8368C72.3365 31.4128 72.6063 30.9118 72.8761 30.4108C73.1458 29.9098 73.3771 29.4088 73.6083 28.9078C73.8395 28.4068 73.9937 27.8672 74.1864 27.3277C74.3406 26.7882 74.4947 26.2486 74.6103 25.7091C74.7259 25.1695 74.803 24.63 74.8801 24.0519C74.9186 23.5123 74.9572 22.9343 74.9572 22.3947V9.40705H73.6083L72.6834 7.71133H76.4217C76.4987 7.71133 76.5373 7.74987 76.6144 7.78841C76.6914 7.82695 76.4987 7.86549 76.4987 7.90403Z" fill="#87806F"/>
<path fill-rule="evenodd" clip-rule="evenodd" d="M43.2781 11.758L45.5904 10.0237L46.8237 13.6078C46.8237 13.6849 46.9007 13.762 46.9778 13.762C47.0934 13.8005 47.1705 13.762 47.2476 13.7234L55.0325 6.13125L53.0285 10.2549C53.0285 10.2935 53.0285 10.332 53.0285 10.4091C53.0285 10.4476 53.067 10.4862 53.1441 10.4862C53.2597 10.5247 53.3753 10.5247 53.4524 10.4476L56.1116 7.59573L57.6146 12.6444C57.6531 12.76 57.7302 12.7985 57.8458 12.7985C57.9615 12.7985 58.0385 12.76 58.0771 12.6444L59.5801 7.5572L62.2393 10.4091C62.3164 10.4862 62.432 10.5247 62.5476 10.4476C62.5861 10.4476 62.6247 10.4091 62.6632 10.3705C62.6632 10.332 62.7018 10.2935 62.6632 10.2164L60.6592 6.09271L68.4441 13.6849C68.5211 13.762 68.5982 13.762 68.7138 13.7234C68.7909 13.6849 68.868 13.6464 68.868 13.5693L70.1012 9.98515L72.4136 11.7194C72.5292 11.7965 72.6063 11.7965 72.7219 11.7194C72.8375 11.6423 72.8375 11.5267 72.7604 11.4111L70.7564 7.82697C70.6023 7.55719 70.371 7.51865 70.1012 7.67281L66.7869 9.75392L58.1927 0.427472C58.0771 0.311855 57.9614 0.273315 57.8073 0.273315C57.6531 0.273315 57.5375 0.311855 57.4219 0.427472L48.8277 9.75392L45.5133 7.67281C45.2436 7.51865 45.0123 7.55719 44.8582 7.82697L42.8542 11.4111C42.7771 11.5267 42.8156 11.6423 42.8927 11.7194C43.0854 11.835 43.201 11.835 43.2781 11.758ZM57.9614 22.626C57.9229 22.4333 57.8073 22.4333 57.7688 22.626C57.4219 24.0519 56.4199 26.3257 55.6106 27.7131C56.3813 27.6746 57.1136 27.6746 57.8844 27.6746C58.6552 27.6746 59.3874 27.6746 60.1582 27.7131C59.3103 26.3257 58.3083 24.0519 57.9614 22.626ZM71.4886 13.6849C71.4501 13.6078 71.373 13.5693 71.2574 13.5693C71.1418 13.5693 71.1033 13.6464 71.0647 13.762L70.7179 16.4212L70.0242 15.8046C69.9471 15.7275 69.87 15.7275 69.7929 15.766C69.7159 15.8045 69.6773 15.8816 69.6773 15.9972L70.0242 19.0033L64.5131 12.4131C64.436 12.336 64.3589 12.2975 64.2433 12.336C64.1277 12.3746 64.0891 12.4517 64.0891 12.5673L64.2433 14.6869L61.2758 12.6444C61.2373 12.6058 61.1987 12.6058 61.1217 12.6058C61.0446 12.6058 61.006 12.6443 60.9675 12.6829L57.8073 16.0358L54.6471 12.6829C54.6085 12.6443 54.57 12.6058 54.4929 12.6058C54.4544 12.6058 54.3773 12.6058 54.3388 12.6444L51.3713 14.6869L51.4869 12.5673C51.4869 12.4517 51.4484 12.3746 51.3327 12.336C51.2171 12.2975 51.14 12.336 51.063 12.4131L45.5904 19.0033L45.9373 15.9972C45.9373 15.8816 45.8987 15.8045 45.8217 15.766C45.7446 15.7275 45.629 15.7275 45.5904 15.8046L44.8967 16.4212L44.5499 13.762C44.5499 13.6464 44.4728 13.6078 44.3572 13.5693C44.2416 13.5307 44.1645 13.5693 44.1259 13.6849L42.5073 16.4212V22.3947C42.5073 24.6685 42.9698 26.8267 43.9718 28.8693C46.4768 28.4454 49.0204 28.137 51.6025 27.9058C51.6796 27.058 51.5254 26.0559 51.2171 25.5935C51.1786 25.5549 51.1786 25.5164 51.1786 25.4778C51.1786 25.4393 51.2171 25.4008 51.2557 25.3622C53.1055 24.2446 56.4584 21.1615 57.499 19.3501C57.5375 19.2731 57.6146 19.196 57.7302 19.196C57.8458 19.196 57.9229 19.2345 57.9614 19.3501C59.002 21.1615 62.3549 24.2446 64.2048 25.3622C64.2433 25.4008 64.2818 25.4008 64.2818 25.4778C64.2818 25.5549 64.2819 25.5549 64.2433 25.5935C63.935 26.0174 63.7808 27.0194 63.8579 27.9058C66.44 28.0985 68.9836 28.4454 71.4886 28.8693C72.4521 26.8267 72.9531 24.6685 72.9531 22.3947V16.4212L71.4886 13.6849ZM47.0549 33.1857C47.4018 33.5325 47.7871 33.8794 48.1725 34.1877C48.5579 34.496 48.9433 34.8043 49.3672 35.0741C49.7912 35.3438 50.2151 35.6136 50.639 35.8449C51.063 36.0761 51.5254 36.3073 51.9879 36.5C52.4504 36.6927 52.9128 36.8469 53.3753 37.001C53.8378 37.1552 54.3388 37.2708 54.8398 37.3479C55.3408 37.425 55.8033 37.502 56.3043 37.5791C56.8053 37.6562 57.3063 37.6562 57.8073 37.6562C58.3083 37.6562 58.8093 37.6177 59.3103 37.5791C59.8113 37.5406 60.3123 37.4635 60.7748 37.3479C61.2758 37.2323 61.7383 37.1166 62.2393 37.001C62.7017 36.8469 63.2028 36.6927 63.6267 36.5C64.0506 36.3073 64.5516 36.0761 64.9756 35.8449C65.3995 35.6136 65.8234 35.3438 66.2473 35.0741C66.6713 34.8043 67.0567 34.496 67.442 34.1877C67.8274 33.8794 68.2128 33.5325 68.5597 33.1857C69.6773 32.068 70.5637 30.8348 71.296 29.4474H44.2801C45.0509 30.8733 45.9758 32.1066 47.0549 33.1857ZM56.3428 32.8388C56.3428 32.8003 56.3813 32.8003 56.4199 32.8003H57.499L57.8458 31.7983C57.8458 31.7597 57.8844 31.7597 57.8844 31.7597C57.8844 31.7597 57.9229 31.7597 57.9229 31.7983L58.2698 32.8003H59.3489C59.3874 32.8003 59.3874 32.8003 59.4259 32.8388C59.4259 32.8773 59.4259 32.8773 59.3874 32.9159L58.5395 33.5325L58.8864 34.5345C58.8864 34.5731 58.8864 34.5731 58.8479 34.6116C58.8093 34.6501 58.8093 34.6116 58.7708 34.6116L57.9229 33.995L57.0751 34.6116C57.0365 34.6501 57.0365 34.6501 56.998 34.6116C56.9594 34.5731 56.9594 34.5731 56.9594 34.5345L57.3063 33.5325L56.4584 32.9159C56.3428 32.9159 56.3428 32.8773 56.3428 32.8388Z" fill="#4D4D4F"/>
<path d="M6.20918 49.9383V51.3643C7.48097 51.4028 8.48298 51.5955 9.21522 51.9809C9.94746 52.3663 10.4485 52.9058 10.7568 53.561C11.0651 54.2162 11.2193 54.9484 11.2193 55.7192C11.2193 56.2202 11.1422 56.7597 10.988 57.2608C10.7953 57.7618 10.5255 58.2242 10.1402 58.6482C9.75477 59.0721 9.25376 59.4189 8.5986 59.6887C7.94343 59.9585 7.13411 60.0741 6.17064 60.1126V61.924H4.74469V60.1126C3.74268 60.1126 2.93336 59.9585 2.2782 59.6887C1.62303 59.4189 1.12202 59.0721 0.736634 58.6482C0.351243 58.2242 0.120009 57.7618 -0.0341472 57.2222C-0.188303 56.7212 -0.265381 56.1817 -0.265381 55.7192C-0.265381 54.9484 -0.111226 54.2547 0.197086 53.5995C0.505399 52.9444 1.04495 52.4048 1.73865 52.0194C2.47089 51.634 3.47291 51.4028 4.70616 51.3643V49.9383H6.20918ZM4.74469 52.5975C3.8583 52.6361 3.16459 52.7517 2.66359 53.0215C2.16258 53.2912 1.77719 53.6381 1.58449 54.1005C1.35326 54.563 1.27618 55.064 1.27618 55.6806C1.27618 56.6441 1.54595 57.4149 2.12404 57.993C2.66358 58.5711 3.58852 58.8409 4.82177 58.8794L4.74469 52.5975ZM6.20918 52.5975V58.8794C7.48097 58.8409 8.36736 58.5325 8.90691 57.9545C9.44646 57.3764 9.71623 56.6056 9.71623 55.6806C9.71623 55.064 9.60061 54.5245 9.40792 54.062C9.17668 53.5995 8.82983 53.2527 8.32883 52.9829C7.75074 52.7517 7.09558 52.6361 6.20918 52.5975Z" fill="#4D4D4F"/>
<path d="M18.0548 52.9829V58.3013C18.0548 58.4555 18.0548 58.6482 18.0548 58.8794C18.0548 59.1492 18.0163 59.3804 18.0163 59.6502C18.0163 59.9199 17.9777 60.1126 17.9777 60.2668L22.6409 52.9444H24.4137V61.7313H23.0649V56.567C23.0649 56.3743 23.0649 56.1816 23.0649 55.8733C23.0649 55.6036 23.0649 55.2952 23.1034 55.0255C23.1034 54.7557 23.142 54.5245 23.142 54.4089L18.4787 61.7313H16.7059V52.9829H18.0548Z" fill="#4D4D4F"/>
<path d="M37.0667 61.7313H35.6023V54.1776H33.0202C32.866 56.0275 32.6733 57.492 32.4421 58.6096C32.2108 59.7272 31.864 60.5366 31.4401 61.0761C31.0161 61.5771 30.5151 61.8469 29.8985 61.8469C29.7443 61.8469 29.6287 61.8469 29.4746 61.8084C29.359 61.8084 29.2433 61.7698 29.1663 61.7313V60.6522C29.2433 60.6907 29.2819 60.6907 29.359 60.6907C29.436 60.6907 29.5131 60.6907 29.5902 60.6907C30.1683 60.6907 30.6693 60.0741 31.0161 58.8408C31.363 57.6076 31.6328 55.6421 31.8254 52.9829H37.1053L37.0667 61.7313Z" fill="#4D4D4F"/>
<path d="M50.6983 57.3378C50.6983 58.8023 50.313 59.92 49.5807 60.6907C48.8485 61.5001 47.8465 61.8854 46.6132 61.8854C45.8424 61.8854 45.1487 61.6927 44.5706 61.3459C43.9925 60.999 43.4915 60.498 43.1447 59.8043C42.7978 59.1106 42.6437 58.3013 42.6437 57.3378C42.6437 55.8734 42.9905 54.7943 43.7228 53.9849C44.455 53.2142 45.4185 52.8288 46.6903 52.8288C47.4611 52.8288 48.1548 53.0215 48.7714 53.3683C49.388 53.7152 49.8505 54.2162 50.1973 54.9099C50.5442 55.565 50.6983 56.3744 50.6983 57.3378ZM44.0696 57.3378C44.0696 58.3784 44.2623 59.1877 44.6863 59.8043C45.1102 60.421 45.7653 60.6907 46.6517 60.6907C47.5381 60.6907 48.1933 60.3824 48.5787 59.8043C49.0026 59.1877 49.1953 58.3784 49.1953 57.3378C49.1953 56.2973 49.0026 55.488 48.5787 54.9099C48.1548 54.3318 47.4996 54.0235 46.6132 54.0235C45.7268 54.0235 45.0716 54.3318 44.6863 54.9099C44.3009 55.488 44.0696 56.2973 44.0696 57.3378Z" fill="#4D4D4F"/>
<path d="M59.7268 61.8854C58.956 61.8854 58.2623 61.7313 57.6457 61.423C57.0676 61.1146 56.5666 60.6136 56.2197 59.9585C55.8729 59.3033 55.7187 58.4555 55.7187 57.4149C55.7187 56.3358 55.9114 55.4494 56.2583 54.7943C56.6051 54.1391 57.1061 53.6381 57.7227 53.3298C58.3394 53.0215 59.0331 52.8673 59.8424 52.8673C60.2663 52.8673 60.6903 52.9058 61.1142 52.9829C61.5381 53.06 61.885 53.1756 62.1547 53.2912L61.7308 54.4859C61.461 54.3703 61.1527 54.2933 60.8059 54.2162C60.459 54.1391 60.1122 54.1006 59.8424 54.1006C58.1081 54.1006 57.2603 55.2182 57.2603 57.4149C57.2603 58.4555 57.453 59.2648 57.8769 59.8429C58.3008 60.4209 58.9175 60.6907 59.7268 60.6907C60.1892 60.6907 60.6132 60.6522 60.96 60.5366C61.3454 60.4209 61.6537 60.3053 61.962 60.1897V61.4615C61.6537 61.6156 61.3454 61.7313 60.9986 61.8083C60.6517 61.8469 60.2278 61.8854 59.7268 61.8854Z" fill="#4D4D4F"/>
<path d="M74.8971 57.3378C74.8971 58.8023 74.5117 59.92 73.7794 60.6907C73.0472 61.5001 72.0452 61.8854 70.8119 61.8854C70.0411 61.8854 69.3474 61.6927 68.7694 61.3459C68.1913 60.999 67.6903 60.498 67.3434 59.8043C66.9966 59.1106 66.8424 58.3013 66.8424 57.3378C66.8424 55.8734 67.1893 54.7943 67.9215 53.9849C68.6537 53.2142 69.6172 52.8288 70.889 52.8288C71.6598 52.8288 72.3535 53.0215 72.9701 53.3683C73.5867 53.7152 74.0492 54.2162 74.3961 54.9099C74.7044 55.565 74.8971 56.3744 74.8971 57.3378ZM68.3069 57.3378C68.3069 58.3784 68.4996 59.1877 68.9235 59.8043C69.3474 60.421 70.0026 60.6907 70.889 60.6907C71.7754 60.6907 72.4306 60.3824 72.816 59.8043C73.2399 59.1877 73.4326 58.3784 73.4326 57.3378C73.4326 56.2973 73.2399 55.488 72.816 54.9099C72.392 54.3318 71.7369 54.0235 70.8505 54.0235C69.9641 54.0235 69.3089 54.3318 68.9235 54.9099C68.4996 55.488 68.3069 56.2973 68.3069 57.3378Z" fill="#4D4D4F"/>
<path d="M85.6212 49.3217V52.8673C86.4691 52.9444 87.2399 53.1756 87.895 53.561C88.5502 53.9464 89.0512 54.4474 89.3981 55.1026C89.7449 55.7577 89.9376 56.49 89.9376 57.3764C89.9376 58.7252 89.5522 59.7658 88.7814 60.5366C88.0107 61.3073 86.9701 61.7698 85.6212 61.8854V65.6622H84.2338V61.8854C83.386 61.8083 82.6152 61.5771 81.96 61.1917C81.3049 60.8063 80.8039 60.3053 80.457 59.6502C80.1102 58.995 79.9175 58.2242 79.9175 57.3378C79.9175 56.0275 80.3029 54.9484 81.0736 54.1776C81.8444 53.4068 82.9235 52.9444 84.2724 52.8288V49.2832C84.2724 49.3217 85.6212 49.3217 85.6212 49.3217ZM84.2724 54.062C83.2704 54.1391 82.5381 54.4859 82.0757 55.064C81.6132 55.6421 81.382 56.4129 81.382 57.3764C81.382 58.3398 81.6132 59.1492 82.0757 59.7272C82.5381 60.3053 83.2704 60.6136 84.2724 60.7293V54.062ZM85.6212 54.062V60.6907C86.5847 60.5751 87.317 60.2282 87.7794 59.6887C88.2419 59.1106 88.4731 58.3398 88.4731 57.3764C88.4731 56.4129 88.2419 55.6421 87.7794 55.064C87.317 54.5245 86.5847 54.1776 85.6212 54.062Z" fill="#4D4D4F"/>
<path d="M96.8483 52.9829V58.3013C96.8483 58.4555 96.8483 58.6482 96.8483 58.8794C96.8483 59.1492 96.8098 59.3804 96.8098 59.6502C96.8098 59.9199 96.7712 60.1126 96.7712 60.2668L101.434 52.9444H103.207V61.7313H101.858V56.567C101.858 56.3743 101.858 56.1816 101.858 55.8733C101.858 55.6036 101.858 55.2952 101.897 55.0255C101.897 54.7557 101.935 54.5245 101.935 54.4089L97.3108 61.6927H95.538V52.9829H96.8483Z" fill="#4D4D4F"/>
<path d="M109.771 61.7313H108.114L110.619 58.0701C110.272 57.993 109.964 57.8774 109.656 57.6847C109.347 57.492 109.077 57.2222 108.885 56.8754C108.692 56.5285 108.576 56.1046 108.576 55.6036C108.576 54.7557 108.846 54.1391 109.424 53.6766C110.002 53.2141 110.735 53.0215 111.698 53.0215H115.591V61.7313H114.165V58.2628H112.045L109.771 61.7313ZM109.925 55.565C109.925 56.066 110.118 56.4514 110.503 56.6827C110.889 56.9139 111.39 57.0295 112.083 57.0295H114.126V54.1391H111.775C111.12 54.1391 110.619 54.2547 110.349 54.5245C110.079 54.8713 109.925 55.1796 109.925 55.565Z" fill="#4D4D4F"/>
<path d="M44.6237 72.6156C44.6237 73.001 44.5466 73.3478 44.431 73.6562C44.3154 73.9645 44.0841 74.1957 43.8529 74.3499C43.5831 74.504 43.2748 74.5811 42.8894 74.5811C42.504 74.5811 42.1572 74.504 41.8874 74.3499C41.6176 74.1957 41.4249 73.9645 41.3093 73.6562C41.1937 73.3478 41.1166 73.001 41.1166 72.6156C41.1166 72.2302 41.1937 71.8834 41.3093 71.5751C41.4249 71.2667 41.6176 71.0741 41.8874 70.8814C42.1572 70.7272 42.4655 70.6116 42.8894 70.6116C43.2748 70.6116 43.5831 70.6887 43.8529 70.8428C44.1227 70.997 44.3154 71.2282 44.431 71.5365C44.5466 71.8834 44.6237 72.2302 44.6237 72.6156ZM41.6176 72.6156C41.6176 73.0781 41.7332 73.4635 41.9259 73.7718C42.1186 74.0415 42.4269 74.1957 42.8894 74.1957C43.3133 74.1957 43.6217 74.0801 43.8143 73.7718C44.007 73.502 44.1227 73.1166 44.1227 72.6156C44.1227 72.1531 44.007 71.7678 43.8143 71.498C43.6217 71.2282 43.3133 71.0741 42.8509 71.0741C42.3884 71.0741 42.1186 71.1897 41.8874 71.498C41.6947 71.7678 41.6176 72.1531 41.6176 72.6156Z" fill="#87806F"/>
<path d="M48.2518 74.5426H47.7893V71.1511H46.5946V70.7272H49.4465V71.1511H48.2518V74.5426Z" fill="#87806F"/>
<path d="M54.1793 70.7272V74.1186H54.6417V75.5446H54.1793V74.5426H51.5586V75.5446H51.0962V74.1186H51.4045C51.5201 73.8874 51.6357 73.6562 51.7513 73.3864C51.8669 73.1166 51.9826 72.8083 52.0596 72.5385C52.1367 72.2302 52.2138 71.9219 52.2909 71.6521C52.3679 71.3438 52.3679 71.0355 52.4065 70.7657H54.1793V70.7272ZM53.7168 71.1897H52.869C52.869 71.3824 52.8304 71.6136 52.7533 71.8834C52.7148 72.1531 52.6377 72.3844 52.5606 72.6927C52.4836 72.9625 52.4065 73.2322 52.2909 73.4635C52.1753 73.7332 52.0982 73.9259 51.9826 74.1186H53.7553V71.1897H53.7168Z" fill="#87806F"/>
<path d="M56.9081 74.5426V70.7272H57.3706V72.3458H57.9487C58.2955 72.3458 58.5653 72.3844 58.7965 72.5C58.9892 72.5771 59.1434 72.7312 59.259 72.8854C59.3361 73.0395 59.3746 73.2322 59.3746 73.4249C59.3746 73.7718 59.259 74.0416 59.0663 74.2343C58.8351 74.427 58.5267 74.5426 58.0257 74.5426C58.0257 74.5426 56.9081 74.5426 56.9081 74.5426ZM59.9527 74.5426V70.7272H60.4152V74.5426H59.9527ZM57.3706 74.1572H57.9872C58.2955 74.1572 58.5267 74.0801 58.6809 73.9645C58.8351 73.8489 58.9121 73.6562 58.9121 73.4249C58.9121 73.1937 58.8351 73.001 58.6809 72.9239C58.5267 72.8469 58.2955 72.7698 57.9487 72.7698H57.4091L57.3706 74.1572Z" fill="#87806F"/>
<path d="M65.6615 74.5426H65.1219L64.0814 72.8854L63.0408 74.5426H62.5398L63.8116 72.5385L62.6169 70.7272H63.1564L64.0814 72.2302L65.0063 70.7272H65.5073L64.3126 72.5385L65.6615 74.5426Z" fill="#87806F"/>
<path d="M70.1673 74.5426L69.7048 73.3479H68.2018L67.7393 74.5426H67.2769L68.7413 70.7272H69.1653L70.6683 74.5426H70.1673ZM69.5892 72.9239L69.1653 71.7678C69.1653 71.7292 69.1267 71.6907 69.0882 71.6136C69.0497 71.5365 69.0497 71.4594 69.0111 71.3824C68.9726 71.3053 68.9726 71.2282 68.934 71.1897C68.8955 71.3053 68.857 71.4209 68.857 71.498C68.8184 71.6136 68.8184 71.6907 68.7799 71.7678L68.356 72.9239H69.5892Z" fill="#87806F"/>
</g>
<defs>
<clipPath id="clip0_1_2">
<rect width="116" height="76" fill="white"/>
</clipPath>
</defs>
</svg>
