<svg width="38" height="41" viewBox="0 0 38 41" fill="none" xmlns="http://www.w3.org/2000/svg">
<g clip-path="url(#clip0_1_2)">
<path fill-rule="evenodd" clip-rule="evenodd" d="M37.4987 7.90403V22.3947C37.4987 23.0113 37.4602 23.628 37.4217 24.2446C37.3446 24.8612 37.2675 25.4778 37.1519 26.0559C37.0363 26.634 36.8821 27.2506 36.6894 27.8287C36.4967 28.4068 36.304 28.9849 36.0728 29.563C35.8416 30.1411 35.5718 30.6806 35.302 31.2201C34.9937 31.7597 34.6854 32.2992 34.3385 32.8002C33.9917 33.3013 33.6448 33.8023 33.2594 34.2647C32.8741 34.7272 32.4501 35.1897 32.0262 35.6136C31.6023 36.0375 31.1398 36.4615 30.6773 36.8468C30.2149 37.2322 29.7139 37.5791 29.2128 37.9259C28.7118 38.2728 28.1723 38.5811 27.6327 38.8509C27.0932 39.1207 26.5536 39.3904 25.9756 39.6217C25.3975 39.8529 24.8194 40.0456 24.2413 40.2383C23.6632 40.431 23.0466 40.5851 22.4685 40.7007C21.8904 40.8164 21.2738 40.8934 20.6572 40.9705C20.0405 41.0476 19.4239 41.0476 18.8458 41.0476C18.2292 41.0476 17.6126 41.0091 16.996 40.9705C16.3793 40.932 15.8013 40.8164 15.1846 40.7007C14.568 40.5851 13.9899 40.431 13.4118 40.2383C12.8337 40.0456 12.2557 39.8529 11.6776 39.6217C11.0995 39.3904 10.5599 39.1207 10.0204 38.8509C9.48085 38.5811 8.9413 38.2343 8.44029 37.9259C7.93928 37.5791 7.43827 37.2322 6.9758 36.8468C6.51333 36.4615 6.05086 36.0375 5.62693 35.6136C5.203 35.1897 4.77908 34.7272 4.39369 34.2647C4.0083 33.8023 3.6229 33.3013 3.31459 32.8002C3.00627 32.2992 2.65943 31.7597 2.38965 31.2201C2.08134 30.6806 1.8501 30.1411 1.61887 29.563C1.38764 28.9849 1.19494 28.4068 1.00224 27.8287C0.809548 27.2506 0.655399 26.634 0.539781 26.0559C0.424164 25.4778 0.347081 24.8612 0.270003 24.2446C0.192925 23.628 0.192932 23.0113 0.192932 22.3947V7.90403C0.192932 7.82695 0.231464 7.78841 0.270003 7.74987C0.308542 7.71133 0.38562 7.67279 0.462699 7.67279H4.20099L3.27606 9.40705H1.92719V22.3947C1.92719 22.9343 1.96572 23.5123 2.00426 24.0519C2.0428 24.5914 2.15842 25.1695 2.27404 25.7091C2.38966 26.2486 2.50528 26.7882 2.69797 27.3277C2.85213 27.8672 3.04482 28.3683 3.27606 28.9078C3.50729 29.4088 3.73852 29.9098 4.0083 30.4108C4.27807 30.9118 4.54784 31.3743 4.85615 31.8368C5.16446 32.2992 5.51132 32.7232 5.85817 33.1471C6.20502 33.571 6.59041 33.995 6.9758 34.3803C7.36119 34.7657 7.78512 35.1511 8.20905 35.498C8.63298 35.8448 9.09545 36.1917 9.55792 36.5C10.0204 36.8083 10.4829 37.0781 10.9839 37.3479C11.4849 37.6176 11.9859 37.8489 12.4869 38.0416C12.9879 38.2728 13.5274 38.4269 14.0285 38.5811C14.5295 38.7353 15.1075 38.8894 15.6471 38.9665C16.1866 39.0436 16.7262 39.1592 17.2657 39.1977C17.8053 39.2363 18.3834 39.2748 18.9229 39.2748C19.4625 39.2748 20.0405 39.2363 20.5801 39.1977C21.1196 39.1592 21.6592 39.0436 22.2373 38.9665C22.7768 38.8509 23.3164 38.7353 23.8559 38.5811C24.3955 38.4269 24.8965 38.2343 25.3975 38.0416C25.8985 37.8489 26.3995 37.5791 26.9005 37.3479C27.4015 37.0781 27.864 36.8083 28.3264 36.5C28.7889 36.1917 29.2514 35.8834 29.6753 35.498C30.0992 35.1126 30.5232 34.7657 30.9086 34.3803C31.2939 33.995 31.6793 33.571 32.0262 33.1471C32.373 32.7232 32.7199 32.2607 33.0282 31.8368C33.3365 31.4128 33.6063 30.9118 33.8761 30.4108C34.1458 29.9098 34.3771 29.4088 34.6083 28.9078C34.8395 28.4068 34.9937 27.8672 35.1864 27.3277C35.3406 26.7882 35.4947 26.2486 35.6103 25.7091C35.7259 25.1695 35.803 24.63 35.8801 24.0519C35.9186 23.5123 35.9572 22.9343 35.9572 22.3947V9.40705H34.6083L33.6834 7.71133H37.4217C37.4987 7.71133 37.5373 7.74987 37.6144 7.78841C37.6914 7.82695 37.4987 7.86549 37.4987 7.90403Z" fill="#87806F"/>
<path fill-rule="evenodd" clip-rule="evenodd" d="M4.27807 11.758L6.59042 10.0237L7.82367 13.6078C7.82367 13.6849 7.90075 13.762 7.97782 13.762C8.09344 13.8005 8.17052 13.762 8.2476 13.7234L16.0325 6.13125L14.0285 10.2549C14.0285 10.2935 14.0285 10.332 14.0285 10.4091C14.0285 10.4476 14.067 10.4862 14.1441 10.4862C14.2597 10.5247 14.3753 10.5247 14.4524 10.4476L17.1116 7.59573L18.6146 12.6444C18.6531 12.76 18.7302 12.7985 18.8458 12.7985C18.9615 12.7985 19.0385 12.76 19.0771 12.6444L20.5801 7.5572L23.2393 10.4091C23.3164 10.4862 23.432 10.5247 23.5476 10.4476C23.5861 10.4476 23.6247 10.4091 23.6632 10.3705C23.6632 10.332 23.7018 10.2935 23.6632 10.2164L21.6592 6.09271L29.4441 13.6849C29.5211 13.762 29.5982 13.762 29.7138 13.7234C29.7909 13.6849 29.868 13.6464 29.868 13.5693L31.1012 9.98515L33.4136 11.7194C33.5292 11.7965 33.6063 11.7965 33.7219 11.7194C33.8375 11.6423 33.8375 11.5267 33.7604 11.4111L31.7564 7.82697C31.6023 7.55719 31.371 7.51865 31.1012 7.67281L27.7869 9.75392L19.1927 0.427472C19.0771 0.311855 18.9614 0.273315 18.8073 0.273315C18.6531 0.273315 18.5375 0.311855 18.4219 0.427472L9.8277 9.75392L6.51334 7.67281C6.24357 7.51865 6.01233 7.55719 5.85818 7.82697L3.85415 11.4111C3.77708 11.5267 3.81561 11.6423 3.89268 11.7194C4.08538 11.835 4.201 11.835 4.27807 11.758ZM18.9614 22.626C18.9229 22.4333 18.8073 22.4333 18.7688 22.626C18.4219 24.0519 17.4199 26.3257 16.6106 27.7131C17.3813 27.6746 18.1136 27.6746 18.8844 27.6746C19.6552 27.6746 20.3874 27.6746 21.1582 27.7131C20.3103 26.3257 19.3083 24.0519 18.9614 22.626ZM32.4886 13.6849C32.4501 13.6078 32.373 13.5693 32.2574 13.5693C32.1418 13.5693 32.1033 13.6464 32.0647 13.762L31.7179 16.4212L31.0242 15.8046C30.9471 15.7275 30.87 15.7275 30.7929 15.766C30.7159 15.8045 30.6773 15.8816 30.6773 15.9972L31.0242 19.0033L25.5131 12.4131C25.436 12.336 25.3589 12.2975 25.2433 12.336C25.1277 12.3746 25.0891 12.4517 25.0891 12.5673L25.2433 14.6869L22.2758 12.6444C22.2373 12.6058 22.1987 12.6058 22.1217 12.6058C22.0446 12.6058 22.006 12.6443 21.9675 12.6829L18.8073 16.0358L15.6471 12.6829C15.6085 12.6443 15.57 12.6058 15.4929 12.6058C15.4544 12.6058 15.3773 12.6058 15.3388 12.6444L12.3713 14.6869L12.4869 12.5673C12.4869 12.4517 12.4484 12.3746 12.3327 12.336C12.2171 12.2975 12.14 12.336 12.063 12.4131L6.59042 19.0033L6.93728 15.9972C6.93728 15.8816 6.89873 15.8045 6.82165 15.766C6.74457 15.7275 6.62895 15.7275 6.59042 15.8046L5.89672 16.4212L5.54987 13.762C5.54987 13.6464 5.47279 13.6078 5.35717 13.5693C5.24156 13.5307 5.16448 13.5693 5.12594 13.6849L3.50729 16.4212V22.3947C3.50729 24.6685 3.96977 26.8267 4.97178 28.8693C7.47682 28.4454 10.0204 28.137 12.6025 27.9058C12.6796 27.058 12.5254 26.0559 12.2171 25.5935C12.1786 25.5549 12.1786 25.5164 12.1786 25.4778C12.1786 25.4393 12.2171 25.4008 12.2557 25.3622C14.1055 24.2446 17.4584 21.1615 18.499 19.3501C18.5375 19.2731 18.6146 19.196 18.7302 19.196C18.8458 19.196 18.9229 19.2345 18.9614 19.3501C20.002 21.1615 23.3549 24.2446 25.2048 25.3622C25.2433 25.4008 25.2818 25.4008 25.2818 25.4778C25.2818 25.5549 25.2819 25.5549 25.2433 25.5935C24.935 26.0174 24.7808 27.0194 24.8579 27.9058C27.44 28.0985 29.9836 28.4454 32.4886 28.8693C33.4521 26.8267 33.9531 24.6685 33.9531 22.3947V16.4212L32.4886 13.6849ZM8.05491 33.1857C8.40176 33.5325 8.78715 33.8794 9.17254 34.1877C9.55793 34.496 9.94332 34.8043 10.3672 35.0741C10.7912 35.3438 11.2151 35.6136 11.639 35.8449C12.063 36.0761 12.5254 36.3073 12.9879 36.5C13.4504 36.6927 13.9128 36.8469 14.3753 37.001C14.8378 37.1552 15.3388 37.2708 15.8398 37.3479C16.3408 37.425 16.8033 37.502 17.3043 37.5791C17.8053 37.6562 18.3063 37.6562 18.8073 37.6562C19.3083 37.6562 19.8093 37.6177 20.3103 37.5791C20.8113 37.5406 21.3123 37.4635 21.7748 37.3479C22.2758 37.2323 22.7383 37.1166 23.2393 37.001C23.7017 36.8469 24.2028 36.6927 24.6267 36.5C25.0506 36.3073 25.5516 36.0761 25.9756 35.8449C26.3995 35.6136 26.8234 35.3438 27.2473 35.0741C27.6713 34.8043 28.0567 34.496 28.442 34.1877C28.8274 33.8794 29.2128 33.5325 29.5597 33.1857C30.6773 32.068 31.5637 30.8348 32.296 29.4474H5.28009C6.05087 30.8733 6.97581 32.1066 8.05491 33.1857ZM17.3428 32.8388C17.3428 32.8003 17.3813 32.8003 17.4199 32.8003H18.499L18.8458 31.7983C18.8458 31.7597 18.8844 31.7597 18.8844 31.7597C18.8844 31.7597 18.9229 31.7597 18.9229 31.7983L19.2698 32.8003H20.3489C20.3874 32.8003 20.3874 32.8003 20.4259 32.8388C20.4259 32.8773 20.4259 32.8773 20.3874 32.9159L19.5395 33.5325L19.8864 34.5345C19.8864 34.5731 19.8864 34.5731 19.8479 34.6116C19.8093 34.6501 19.8093 34.6116 19.7708 34.6116L18.9229 33.995L18.0751 34.6116C18.0365 34.6501 18.0365 34.6501 17.998 34.6116C17.9594 34.5731 17.9594 34.5731 17.9594 34.5345L18.3063 33.5325L17.4584 32.9159C17.3428 32.9159 17.3428 32.8773 17.3428 32.8388Z" fill="#4D4D4F"/>
</g>
<defs>
<clipPath id="clip0_1_2">
<rect width="38" height="41" fill="white"/>
</clipPath>
</defs>
</svg>
